<svg xmlns="http://www.w3.org/2000/svg" xmlns:xlink="http://www.w3.org/1999/xlink" version="1.1" width="16" height="16" viewBox="0 0 16 16"><path d="M7.464285925787354,1.5714285373687744C7.464285925787354,1.5714285373687744,8.535714475787353,1.5714285373687744,8.535714475787353,1.5714285373687744C8.630952575787354,1.5714285373687744,8.678571575787354,1.6190475823687744,8.678571575787354,1.7142856873687744C8.678571575787354,1.7142856873687744,8.678571575787354,14.285714537368774,8.678571575787354,14.285714537368774C8.678571575787354,14.380952537368774,8.630952575787354,14.428570537368774,8.535714475787353,14.428570537368774C8.535714475787353,14.428570537368774,7.464285925787354,14.428570537368774,7.464285925787354,14.428570537368774C7.369047820787354,14.428570537368774,7.3214287757873535,14.380952537368774,7.3214287757873535,14.285714537368774C7.3214287757873535,14.285714537368774,7.3214287757873535,1.7142856873687744,7.3214287757873535,1.7142856873687744C7.3214287757873535,1.6190475823687744,7.369047820787354,1.5714285373687744,7.464285925787354,1.5714285373687744Z"/><path d="M1.9999999560531616,7.3214287757873535C1.9999999560531616,7.3214287757873535,14.000000806053162,7.3214287757873535,14.000000806053162,7.3214287757873535C14.095237806053161,7.3214287757873535,14.142856806053162,7.369047820787354,14.142856806053162,7.464285925787354C14.142856806053162,7.464285925787354,14.142856806053162,8.535714475787353,14.142856806053162,8.535714475787353C14.142856806053162,8.630952575787354,14.095237806053161,8.678571575787354,14.000000806053162,8.678571575787354C14.000000806053162,8.678571575787354,1.9999999560531616,8.678571575787354,1.9999999560531616,8.678571575787354C1.9047618510531616,8.678571575787354,1.8571428060531616,8.630952575787354,1.8571428060531616,8.535714475787353C1.8571428060531616,8.535714475787353,1.8571428060531616,7.464285925787354,1.8571428060531616,7.464285925787354C1.8571428060531616,7.369047820787354,1.9047618510531616,7.3214287757873535,1.9999999560531616,7.3214287757873535Z"/></svg>
