<svg xmlns="http://www.w3.org/2000/svg" xmlns:xlink="http://www.w3.org/1999/xlink" version="1.1" width="16" height="16" viewBox="0 0 16 16"><path d="M7.9955429305114745,9.418391708117065L9.709828630511474,9.418391708117065Q9.776802530511475,9.418391648117066,9.842489730511474,9.405325588117066Q9.908176930511475,9.392259598117066,9.970052730511474,9.366629718117066Q10.031928730511474,9.340999778117066,10.087615930511475,9.303790928117065Q10.143302930511474,9.266582128117065,10.190660930511475,9.219224278117066Q10.238018730511474,9.171866418117066,10.275227530511474,9.116179408117066Q10.312436630511474,9.060492398117065,10.338066530511474,8.998616338117065Q10.363696530511476,8.936740308117065,10.376762430511475,8.871053038117065Q10.389828230511474,8.805365798117066,10.389828730511475,8.738391668117066Q10.389828230511474,8.671417508117065,10.376762430511475,8.605730218117065Q10.363696530511476,8.540042974117066,10.338066530511474,8.478166934117066Q10.312436630511474,8.416290888117066,10.275227830511476,8.360603914117066Q10.238019030511474,8.304916948117066,10.190661230511475,8.257559058117065Q10.143303130511475,8.210201208117066,10.087615930511475,8.172992348117065Q10.031929030511474,8.135783528117065,9.970053230511475,8.110153618117065Q9.908176930511475,8.084523708117066,9.842489730511474,8.071457688117066Q9.776802530511475,8.058391688117066,9.709828630511474,8.058391658117065L6.281251430511475,8.058391658117065Q6.214277274511475,8.058391688117066,6.148590030511475,8.071457688117066Q6.082902760511475,8.084523708117066,6.021026730511474,8.110153618117065Q5.959150670511475,8.135783528117065,5.903463720511475,8.172992348117065Q5.847776740511475,8.210201208117066,5.800418850511474,8.257559048117065Q5.753061000511474,8.304916938117065,5.715852140511474,8.360603906117065Q5.678643350511475,8.416290877117065,5.653013470511475,8.478166927117066Q5.627383590511474,8.540042966117065,5.6143175405114745,8.605730238117065Q5.601251480511475,8.671417508117065,5.601251420511475,8.738391668117066Q5.601251480511475,8.805365798117066,5.6143175405114745,8.871053038117065Q5.627383530511475,8.936740308117065,5.653013410511475,8.998616338117065Q5.678643350511475,9.060492398117065,5.715852140511474,9.116179408117066Q5.753061000511474,9.171866418117066,5.800418850511474,9.219224278117066Q5.847776740511475,9.266582128117065,5.903463720511475,9.303790928117065Q5.959150670511475,9.340999778117066,6.021026730511474,9.366629718117066Q6.082902760511475,9.392259598117066,6.148590030511475,9.405325648117065Q6.214277274511475,9.418391648117066,6.281251430511475,9.418391708117065L7.9955429305114745,9.418391708117065Z" fill-rule="evenodd"/><path d="M2.2052013475915957,3.718917487893677L3.1761670875915957,11.194579387893677Q3.3685692675915955,12.676014387893677,4.638054417591595,13.420666387893677L4.820847017591595,13.527899387893676Q6.297739617591596,14.394286387893677,8.000001017591597,14.394286387893677Q9.702261017591596,14.394286387893677,11.179146817591596,13.527905387893677L11.361945217591595,13.420676387893677Q12.631507917591597,12.675958387893676,12.823822117591595,11.194579387893677L13.794793017591596,3.7189211878936765Q13.870431017591596,3.136595847893677,13.411943017591595,2.801407457893677Q11.776015317591595,1.6057143778936767,8.000000117591597,1.6057144378936767Q4.223963917591596,1.6057142578936767,2.5880638275915957,2.8014156778936767Q2.1295574475915955,3.136550187893677,2.2052013475915957,3.718917487893677ZM5.326208917591596,12.247616987893677Q4.631422717591596,11.840070987893677,4.524839717591596,11.019416087893676L3.5833746375915956,3.770885087893677Q4.9057758175915955,2.9657143378936768,8.000000117591597,2.9657145178936766Q11.094181117591596,2.965714397893677,12.416621317591595,3.770874887893677L11.475150217591596,11.019408487893676Q11.368614317591595,11.840048087893678,10.673828217591595,12.247605587893677L10.491025517591595,12.354837387893676Q9.332796217591596,13.034285387893677,8.000001017591597,13.034285387893677Q6.667206317591596,13.034285387893677,5.508993717591595,12.354845387893677L5.326208917591596,12.247616987893677Z" fill-rule="evenodd"/><path d="M11.264064325262451,5.590525745213318Q12.96465792526245,5.228443545213318,13.638486925262452,4.511100675213318L12.647226825262452,3.5799702152133177Q12.477168525262451,3.7610110652133177,12.072875525262452,3.933170345213318Q11.628271625262451,4.122495748213318,10.980847825262451,4.260342035213318Q9.67331502526245,4.538735505213318,8.000006225262451,4.538737745213318Q6.326693025262451,4.538739975213318,5.019160725262451,4.260348375213318Q4.371737825262452,4.122503117213318,3.927131225262451,3.9331763152133177Q3.522835015262451,3.7610149352133178,3.352773545262451,3.579970925213318L2.361512305262451,4.511099965213318Q3.035347695262451,5.228451445213318,4.735946425262451,5.590532445213318Q6.183517425262451,5.898740245213318,8.000007625262452,5.898737945213318Q9.816493525262452,5.898735445213318,11.264064325262451,5.590525745213318Z" fill-rule="evenodd"/></svg>
