<svg xmlns="http://www.w3.org/2000/svg" xmlns:xlink="http://www.w3.org/1999/xlink" version="1.1" width="24" height="24" viewBox="0 0 24 24"><g><path d="M9.719030400000001,4.4781577L8.7242117,6.292968699999999L4.79781252,6.292968699999999C4.43054312,6.292968699999999,4.1328125,6.5906994,4.1328125,6.9579687C4.1328125,7.325238199999999,4.43054312,7.6229686999999995,4.79781252,7.6229686999999995L5.9335937,7.6229686999999995L5.9335937,19.198006499999998C5.9335937,19.5652765,6.2313244,19.863007500000002,6.5985937,19.863007500000002L17.3985935,19.863007500000002C17.765863500000002,19.863007500000002,18.0635935,19.5652765,18.0635935,19.198006499999998L18.0635935,7.6229686999999995L19.197812499999998,7.6229686999999995C19.565081499999998,7.6229686999999995,19.8628125,7.325238199999999,19.8628125,6.9579687C19.8628125,6.5906994,19.565081499999998,6.292968699999999,19.197812499999998,6.292968699999999L15.2758685,6.292968699999999L14.3037145,4.48313192C14.1878335,4.26740015,13.9627657,4.1328125,13.7178812,4.1328125L10.302164999999999,4.1328125C10.05931,4.1328125,9.8357673,4.2651993,9.719030400000001,4.4781577ZM10.2410145,6.2928125999999995L13.7660561,6.2928125999999995L13.3202209,5.4628127L10.6959929,5.4628127L10.2410145,6.2928125999999995ZM7.2635936999999995,7.623006800000001L16.733593499999998,7.623006800000001L16.733593499999998,18.5330065L7.2635936999999995,18.5330065L7.2635936999999995,7.623006800000001ZM9.8945313,10.5595312L9.8945313,15.2395305C9.8945313,15.6068005,10.1922617,15.9045315,10.5595312,15.9045315C10.926800700000001,15.9045315,11.224531200000001,15.6068005,11.224531200000001,15.2395305L11.224531200000001,10.5595312C11.224531200000001,10.1922617,10.926800700000001,9.8945313,10.5595312,9.8945313C10.1922617,9.8945313,9.8945313,10.1922617,9.8945313,10.5595312ZM12.7734375,10.5595312L12.7734375,15.2395305C12.7734375,15.6068005,13.0711679,15.9045315,13.4384375,15.9045315C13.805707,15.9045315,14.1034374,15.6068005,14.1034374,15.2395305L14.1034374,10.5595312C14.1034374,10.1922617,13.805707,9.8945313,13.4384375,9.8945313C13.0711679,9.8945313,12.7734375,10.1922617,12.7734375,10.5595312Z"/></g></svg>
