<svg xmlns="http://www.w3.org/2000/svg" xmlns:xlink="http://www.w3.org/1999/xlink" fill="none" version="1.1" width="24" height="24" viewBox="0 0 24 24"><g><path d="M7.322093199999999,19.998233Q6.6471932,19.998234,6.0299132,19.736733C5.6325799,19.568466,5.2805769,19.331,4.97390431,19.024333Q4.51389027,18.564332999999998,4.26144931,17.968333Q4,17.351032,4,16.676133L4,7.322093199999999Q4,6.647183200000001,4.26144931,6.0299132Q4.51389229,5.4339132,4.97390431,4.97390431Q5.4339132,4.51389134,6.0299132,4.26144931Q6.6471734,4,7.322093199999999,4L16.677934,4Q17.352232,4,17.969334,4.26145229Q18.565334,4.51392233,19.025434,4.97389328C19.332233000000002,5.2806133,19.569865999999998,5.6326133,19.738334000000002,6.029893400000001Q20.000032,6.647243,20.000032,7.322093199999999L20.000032,16.676233C19.999567,17.126165999999998,19.912066,17.556867,19.737534,17.968333C19.568933,18.365665999999997,19.331266,18.717667,19.024532999999998,19.024333C18.717733000000003,19.331,18.365665999999997,19.5685,17.968333,19.736834Q17.351033,19.998234,16.676133,19.998233L7.322093199999999,19.998233ZM7.3217970999999995,5.2109375C6.1591673,5.2109375,5.2138672,6.1562376,5.2138672,7.3188674C5.2159853,6.158027199999999,6.1604695,5.2148438,7.3217970999999995,5.2148438L16.677637,5.2148438C17.838935,5.2148438,18.783419000000002,6.158027199999999,18.785533,7.3188674C18.785536999999998,6.1562376,17.840238,5.2109375,16.677637,5.2109375L7.3217970999999995,5.2109375ZM5.2978515999999996,16.675515L5.2978515999999996,7.3214749999999995Q5.2978515999999996,6.484014999999999,5.8914216,5.890445Q6.4849916,5.296875,7.3224516,5.296875L16.678291,5.296875Q17.515692,5.296875,18.109292,5.890445Q18.702891,6.484014999999999,18.702891,7.3214749999999995L18.702891,16.675515Q18.702891,17.513016,18.109292,18.106515Q17.515692,18.700115,16.678291,18.700115L7.3224516,18.700115Q6.4850016,18.700115,5.8914216,18.106515Q5.2978515999999996,17.513016,5.2978515999999996,16.675515ZM8.6067576,9.820927600000001Q8.337678,9.820927600000001,8.1478477,9.6310978Q7.9580081,9.441257499999999,7.9580078,9.172187300000001Q7.9580081,8.9031076,8.1478477,8.7132673Q8.337688,8.5234375,8.6067576,8.5234375L11.999238,8.5234375C12.1786251,8.5234375,12.3315945,8.5867143,12.458148,8.7132673Q12.6479778,8.9031076,12.6479778,9.172187300000001Q12.6479778,9.441257499999999,12.458148,9.6310978C12.3315945,9.7576509,12.1786251,9.820927600000001,11.999238,9.820927600000001L8.6067576,9.820927600000001ZM8.1478477,12.4592123Q8.337688,12.6490526,8.6067576,12.6490526L15.391738,12.6490526C15.571138,12.6490526,15.724104,12.5857725,15.850637,12.4592123C15.977171,12.3326588,16.040438,12.1796894,16.040438,12.0003023Q16.040438,11.731222599999999,15.850637,11.5413923C15.724104,11.4148393,15.571138,11.3515625,15.391738,11.3515625L8.6067576,11.3515625Q8.337688,11.3515625,8.1478477,11.5413923Q7.9580081,11.731222599999999,7.9580078,12.0003023C7.9580078,12.1796894,8.0212879,12.3326588,8.1478477,12.4592123ZM8.1478477,15.283381Q8.337688,15.47328,8.6067576,15.473281L15.391738,15.473281C15.571138,15.473281,15.724104,15.409981,15.850637,15.283381C15.977171,15.156848,16.040438,15.003881,16.040438,14.824481C16.040438,14.645148,15.977171,14.492181,15.850637,14.365582C15.724104,14.239048,15.571138,14.175781,15.391738,14.175781L8.6067576,14.175781Q8.337688,14.175781,8.1478477,14.365582C8.0212879,14.492181,7.9580078,14.645148,7.9580078,14.824481C7.9580078,15.003881,8.0212879,15.156848,8.1478477,15.283381ZM15.391405,15.388613L8.6064258,15.388613C8.2943368,15.388613,8.0420685,15.137063,8.041019,14.825166L8.0410156,14.827119C8.0410156,15.139918,8.293685400000001,15.392519,8.6064258,15.392519L15.391405,15.392519C15.704105,15.392519,15.956806,15.139918,15.956806,14.827119L15.956803,14.825166C15.955754,15.137063,15.703454,15.388613,15.391405,15.388613Z" fill-rule="evenodd" fill="#2278FF" fill-opacity="1"/></g></svg>