<svg xmlns="http://www.w3.org/2000/svg" xmlns:xlink="http://www.w3.org/1999/xlink" version="1.1" width="24" height="24" viewBox="0 0 24 24"><g><path d="M15.26518925,4.52415593C15.23432225,4.49366593,15.20078825,4.46645394,15.16458925,4.44251993C15.12832125,4.418585129,15.09012225,4.398380466,15.04998825,4.381905932Q14.98968925,4.357194131,14.92588925,4.344606533C14.88328825,4.3362147827,14.84028925,4.3320230260661,14.79688825,4.33203125C14.75342225,4.3320394981329,14.71042225,4.336247555,14.66788825,4.344655433Q14.60398825,4.357267331,14.54368925,4.382001933C14.50355525,4.398491733,14.46538825,4.418710731,14.42918825,4.44265893C14.39298925,4.4666076,14.35944225,4.4938326,14.32854845,4.52433394L6.11620875,12.63388155C6.0527887499999995,12.69650845,6.00389205,12.76894565,5.96951875,12.85119155Q5.91796875,12.97455215,5.91796875,13.10825155L5.91796875,15.95763225C5.91796875,16.00136525,5.92223875,16.04469825,5.93077875,16.08763225C5.93931875,16.13056525,5.95196545,16.172265250000002,5.96871875,16.212732250000002C5.9854654499999995,16.25319825,6.00599875,16.29159825,6.03031875,16.32793225C6.0546387500000005,16.36433225,6.08227535,16.39803225,6.11322875,16.42903225C6.1441820499999995,16.45996525,6.17785875,16.487598249999998,6.21425875,16.51193225C6.25065205,16.53626525,6.28906865,16.556799249999997,6.3295087500000005,16.57353225C6.36995555,16.59026525,6.41164545,16.602898250000003,6.45457885,16.61143225Q6.51897855,16.62423225,6.58463885,16.62423225L9.48828885,16.62423225C9.575922049999999,16.62423225,9.66027545,16.607598250000002,9.74134875,16.574332249999998C9.82242875,16.541065250000003,9.89415555,16.49366525,9.95652865,16.432132250000002L18.16398925,8.33355185C18.19512225,8.302805150000001,18.222989249999998,8.26931525,18.24758925,8.23308185C18.272122250000002,8.19684865,18.29292225,8.15856865,18.30998925,8.11824205C18.32698925,8.07790855,18.33988825,8.03630515,18.34868925,7.99343205C18.35755525,7.95055865,18.36212225,7.9072353500000006,18.362388250000002,7.86346195C18.36265525,7.81968855,18.35868825,7.7763085499999995,18.350488249999998,7.7333219500000006C18.34222225,7.69032855,18.32985525,7.648555249999999,18.31338925,7.60800195C18.29685525,7.56745525,18.27655525,7.5289018500000005,18.25248925,7.49234195C18.22842225,7.45578195,18.20102225,7.42192195,18.17028925,7.3907618500000005Q18.167188250000002,7.38759185,18.16398925,7.384471850000001L15.26518925,4.52415593ZM14.79979625,5.93359375L7.25390625,13.38499355L7.25390625,15.28907425L9.21735625,15.28907425L16.74919625,7.8571538499999996L14.79979625,5.93359375ZM19.28444125,19.75527525L4.99869746,19.75527525Q4.93303645,19.75527425,4.86863744,19.742375250000002Q4.80423844,19.72957525,4.74357545,19.70447525C4.70313343,19.687741250000002,4.6647141,19.66720825,4.62831745,19.64287425C4.59192076,19.61854125,4.55824611,19.59090825,4.52729344,19.55997425Q4.48086445,19.513574249999998,4.44438444,19.45897525C4.420065172,19.42257525,4.399529777,19.38414225,4.382778242,19.34367425C4.366026644,19.30327525,4.353380909,19.261608250000002,4.344841043,19.21867425Q4.33203125,19.15427425,4.33203125,19.088575249999998C4.33203125,19.04477525,4.336301181,19.00140825,4.344841043,18.95847525C4.353380909,18.91554125,4.366026644,18.87387425,4.382778242,18.83347525C4.399529777,18.79300925,4.420065172,18.754575250000002,4.44438444,18.71817525Q4.48086445,18.66357525,4.52729344,18.617175250000003C4.55824611,18.58624125,4.59192076,18.55860825,4.62831745,18.53427525C4.6647141,18.50994225,4.70313343,18.48940825,4.74357545,18.47267525Q4.80423844,18.44747525,4.86863744,18.434675249999998Q4.93303645,18.42187525,4.99869746,18.42187525L19.28444125,18.42187525C19.32817425,18.42187525,19.37150725,18.42614125,19.41444125,18.434675249999998C19.45737425,18.443208249999998,19.49907525,18.45587525,19.53954125,18.47267525C19.58000825,18.48940825,19.61840825,18.50994225,19.65474125,18.53427525C19.69114125,18.55860825,19.72484125,18.58624125,19.75584125,18.617175250000003C19.78677425,18.64810825,19.81440825,18.68177525,19.838741249999998,18.71817525C19.86307425,18.754575250000002,19.88360825,18.79300925,19.90034125,18.83347525C19.91707525,18.87387425,19.929708249999997,18.91554125,19.93824125,18.95847525C19.94677425,19.00140825,19.95104125,19.04477525,19.95104125,19.088575249999998Q19.95104125,19.15427425,19.93824125,19.21867425C19.929708249999997,19.261608250000002,19.91707525,19.30327525,19.90034125,19.34367425C19.88360825,19.38414225,19.86307425,19.42257525,19.838741249999998,19.45897525C19.81440825,19.495374249999998,19.78677425,19.52904125,19.75584125,19.55997425C19.72484125,19.59090825,19.69114125,19.61854125,19.65474125,19.64287425C19.61840825,19.66720825,19.58000825,19.687741250000002,19.53954125,19.70447525C19.49907525,19.72120825,19.45737425,19.733842250000002,19.41444125,19.742375250000002C19.37150725,19.75097425,19.32817425,19.75527525,19.28444125,19.75527525Z" fill-rule="evenodd"/></g></svg>
