<svg xmlns="http://www.w3.org/2000/svg" viewBox="0 0 24 24">
  <path fill="currentColor" d="M3 5.3h6V3.8a.7.7 0 1 1 1.4 0v1.5h5.1a.7.7 0 1 1 0 1.4h-2c-.6 2.5-1.7 4.5-3.2 6.2 1.1 1 2.4 1.9 3.9 2.6a.7.7 0 1 1-.6 1.3 17 17 0 0 1-4.3-2.9 17 17 0 0 1-4.4 2.9.7.7 0 0 1-.6-1.3c1.6-.7 2.9-1.6 4-2.6A15 15 0 0 1 5.7 9a.7.7 0 0 1 1.3-.5c.6 1.3 1.3 2.4 2.3 3.4 1.3-1.4 2.2-3.1 2.7-5.2H3a.7.7 0 1 1 0-1.4Zm14.3 6.1a.8.8 0 0 1 1.4 0l3.2 8.4a.7.7 0 1 1-1.3.5l-.8-2H16l-.8 2a.7.7 0 1 1-1.3-.5l3.4-8.4Zm.6 1.9-1.4 3.6h2.8l-1.4-3.6Z"/>
</svg>
