<svg xmlns="http://www.w3.org/2000/svg" xmlns:xlink="http://www.w3.org/1999/xlink" version="1.1" width="24" height="24" viewBox="0 0 24 24"><defs><clipPath id="master_svg0_18_007845"><rect x="-0.6000000238418579" y="-0.6000000238418579" width="25.200000047683716" height="25.200000047683716" rx="0"/></clipPath></defs><g clip-path="url(#master_svg0_18_007845)"><path d="M4 4C4 4 4 4 4 4L20 4C20 4 20 4 20 4L20 20C20 20 20 20 20 20L4 20C4 20 4 20 4 20Z" style="opacity:0;"/><g><path d="M3.39999998,12Q3.39999998,8.4377632,5.9188817,5.9188817Q8.4377627,3.40000057,12,3.4000007500000002Q15.560946,3.40409142,18.078426999999998,5.9215733Q20.595907,8.439054500000001,20.6,11.999309499999999Q20.6,15.562239,18.081119,18.081119Q15.562237,20.6,11.9999971,20.6Q8.4377618,20.6,5.9188817,18.081119Q3.40000057,15.562237,3.4000007500000002,11.9999971L3.39999998,12ZM4.6000008,11.9999971Q4.60000038,15.06518,6.76741,17.232590000000002Q8.9348197,19.400001,11.9999971,19.400001Q15.065179,19.400001,17.232590000000002,17.232590000000002Q19.400001,15.065181,19.400001,12.0006895Q19.396479,8.9366822,17.229898,6.7701015Q15.063317,4.6035204499999995,12,4.6000008Q8.9348197,4.60000038,6.76741,6.76741Q4.6000000199999995,8.9348197,4.6000000199999995,12L4.6000008,11.9999971ZM10.534894000000001,15.341558L15.139211,11.8883204Q15.083384,11.9301906,15.083384,11.9999757Q15.083384,12.0697603,15.139211,12.1116304L10.534894000000001,8.658392899999999Q10.6038995,8.7101474,10.681050800000001,8.6715722Q10.758203,8.632995600000001,10.758203,8.546738099999999L10.758203,15.453213Q10.758203,15.313644,10.618634700000001,15.313644Q10.5721116,15.313644,10.5348916,15.341559L10.534894000000001,15.341558ZM11.254895699999999,16.301555999999998Q10.972114099999999,16.513644,10.618634700000001,16.513644Q9.558203200000001,16.513644,9.558203200000001,15.453213L9.558203200000001,8.546738099999999Q9.558203200000001,7.891356200000001,10.144396799999999,7.5982582999999995Q10.7305894,7.3051631,11.2548938,7.6983929L15.85921,11.1516299Q16.283383,11.4697595,16.283383,11.9999757Q16.283383,12.5301914,15.85921,12.848321L11.2548938,16.301558L11.254895699999999,16.301555999999998Z"/></g></g></svg>
